<?xml version="1.0" encoding="utf-8"?>
<!-- Generator: Adobe Illustrator 16.0.3, SVG Export Plug-In . SVG Version: 6.00 Build 0)  -->
<!DOCTYPE svg PUBLIC "-//W3C//DTD SVG 1.1//EN" "http://www.w3.org/Graphics/SVG/1.1/DTD/svg11.dtd">
<svg version="1.1" id="Ebene_1" xmlns="http://www.w3.org/2000/svg" xmlns:xlink="http://www.w3.org/1999/xlink" x="0px" y="0px"
	 width="1216.438px" height="397.48px" viewBox="0 0 1216.438 397.48" enable-background="new 0 0 1216.438 397.48"
	 xml:space="preserve">
<g>
	<g>
		<g>
			<rect x="238.939" y="288.086" fill="#40382B" width="76.898" height="95.683"/>
			<path fill="#40382B" d="M106.502,288.086c3.164,4.842,4.768,10.924,4.768,18.292c0,8.543-3.043,15.521-9.117,20.949
				c-6.083,5.423-14.048,8.13-23.911,8.13c-8.551,0-17.333-1.554-26.373-4.682c-9.039-3.122-16.012-6.656-20.951-10.592
				l-19.716,48.798c8.545,5.588,19.716,10.191,33.522,13.8c13.8,3.614,28.592,5.422,44.365,5.422
				c30.886,0,55.452-7.957,73.694-23.91c18.242-15.936,27.357-35.899,27.357-59.891c0-5.73-0.525-11.153-1.49-16.316H106.502z"/>
			<path fill="#40382B" d="M865.969,288.086v52.795c-7.236,3.621-16.602,5.416-28.096,5.416c-15.773,0-27.777-3.608-35.988-10.84
				c-8.217-7.229-12.32-18.396-12.32-33.516c0-4.99,0.383-9.611,1.146-13.855h-71.734c-0.926,5.298-1.389,10.9-1.389,16.81
				c0,55.873,38.779,83.801,116.338,83.801c22.346,0,42.402-1.727,60.143-5.176c17.744-3.455,32.365-8.297,43.875-14.541v-80.895
				H865.969z"/>
			<path fill="#40382B" d="M1132.162,288.086v52.795c-7.225,3.621-16.596,5.416-28.096,5.416c-15.775,0-27.779-3.608-35.99-10.84
				c-8.211-7.229-12.326-18.396-12.326-33.516c0-4.99,0.381-9.611,1.154-13.855H985.17c-0.934,5.298-1.389,10.9-1.389,16.81
				c0,55.873,38.771,83.801,116.344,83.801c22.336,0,42.389-1.727,60.137-5.176c17.742-3.455,32.355-8.297,43.867-14.541v-80.895
				H1132.162z"/>
			<polygon fill="#40382B" points="614.559,288.086 536.73,288.086 496.754,383.769 684.072,383.769 684.072,333.978 
				596.33,333.978 			"/>
			<rect x="376.963" y="288.086" fill="#40382B" width="76.902" height="95.683"/>
		</g>
		<g>
			<path fill="#40382B" d="M95.292,178.719c1.351-3.09,3.301-5.897,5.869-8.396c5.433-5.256,12.897-7.896,22.435-7.896
				c8.213,0,15.85,1.406,22.918,4.194c7.064,2.802,12.895,6.002,17.502,9.618l18.734-43.875
				c-20.707-12.82-46.174-19.223-76.408-19.223c-26.3,0-47.654,7.883-64.079,23.665c-12.413,11.899-20.127,25.879-23.166,41.913
				H95.292z"/>
			<polygon fill="#40382B" points="582.428,178.719 658.008,178.719 682.1,118.071 505.631,118.071 505.631,167.855 
				586.959,167.855 			"/>
			<rect x="376.963" y="118.071" fill="#40382B" width="76.902" height="60.648"/>
			<path fill="#40382B" d="M783.654,165.387c11.492-2.96,23.324-4.441,35.492-4.441c15.102,0,26.686,2.641,34.75,7.891
				c3.719,2.437,6.547,5.75,8.551,9.883h72.338c-4.107-18.563-12.25-32.875-24.455-42.906
				c-18.402-15.108-44.041-22.671-76.898-22.671c-14.785,0-31.301,1.727-49.537,5.169c-18.24,3.455-35.084,8.464-50.529,15.034
				l16.76,43.875C760.971,172.291,772.137,168.354,783.654,165.387z"/>
			<path fill="#40382B" d="M1049.84,165.387c11.492-2.96,23.324-4.441,35.492-4.441c15.113,0,26.691,2.641,34.75,7.891
				c3.725,2.437,6.551,5.75,8.551,9.883h72.344c-4.115-18.563-12.244-32.875-24.453-42.906
				c-18.41-15.108-44.043-22.671-76.898-22.671c-14.787,0-31.303,1.727-49.545,5.169c-18.236,3.455-35.078,8.464-50.525,15.034
				l16.762,43.875C1027.162,172.291,1038.334,168.354,1049.84,165.387z"/>
			<rect x="238.939" y="56.108" fill="#40382B" stroke="#40382B" stroke-miterlimit="10" width="76.898" height="122.611"/>
		</g>
		<polygon fill="#889696" points="576.705,192.408 542.447,274.39 619.998,274.39 652.574,192.408 		"/>
		<path fill="#889696" d="M865.811,192.408c0.09,1.308,0.158,2.64,0.158,4.041v12.32c-46.336,4.275-82.654,13.479-108.941,27.606
			c-16.883,9.082-28.314,21.759-34.355,38.015h72.494c3.047-6.01,7.336-10.802,12.887-14.355
			c12.32-7.885,31.623-13.134,57.916-15.775v30.13h71.975V210.25c0-6.267-0.318-12.214-0.93-17.841H865.811z"/>
		<path fill="#889696" d="M1132,192.408c0.098,1.308,0.162,2.64,0.162,4.041v12.32c-46.338,4.275-82.656,13.479-108.938,27.606
			c-16.883,9.082-28.322,21.759-34.367,38.015h72.492c3.057-6.01,7.35-10.802,12.889-14.355
			c12.326-7.885,31.631-13.134,57.924-15.775v30.13h71.967V210.25c0-6.267-0.309-12.214-0.92-17.841H1132z"/>
		<rect x="376.963" y="192.408" fill="#889696" width="76.902" height="81.982"/>
		<path fill="#889696" d="M128.279,226.764c-22.205-9.469-33.894-20.925-35.122-34.356H17.672c-0.024,0.852-0.055,1.697-0.055,2.561
			c0,15.454,4.263,29.414,12.81,41.901c8.545,12.492,21.691,22.27,39.442,29.334c7.23,2.874,13.381,5.607,18.488,8.186h96.393
			c-2.053-5.127-4.684-9.92-7.908-14.355C167.965,247.882,151.768,236.795,128.279,226.764z"/>
		<rect x="238.939" y="192.408" fill="#889696" width="76.898" height="81.982"/>
		<path fill="#889696" d="M1098.543,78.62c-79.617-41.765-209.205-68.953-355.58-68.953c-123.043,0-234.221,19.216-313.824,50.155
			c-2.1-7.909-1.375-18.137,0.057-33.036c-9.777,24.572-52.232,55.195-52.232,55.195s55.299-4.423,77.115,0.951
			c-13.113-6.041-20.096-11.451-23.488-18.971C517.688,37.453,625.793,21.74,742.963,21.74
			C880.373,21.74,1005.348,43.339,1098.543,78.62z"/>
	</g>
</g>
</svg>
